<mxfile host="app.diagrams.net" agent="Mozilla/5.0 (Windows NT 10.0; Win64; x64) AppleWebKit/537.36 (KHTML, like Gecko) Chrome/134.0.0.0 Safari/537.36 Edg/134.0.0.0" version="26.1.1">
  <diagram name="Page-1" id="4fDO31qfMd2ks5ZTsBHN">
    <mxGraphModel dx="1397" dy="792" grid="1" gridSize="10" guides="1" tooltips="1" connect="1" arrows="1" fold="1" page="1" pageScale="1" pageWidth="850" pageHeight="1100" math="0" shadow="0">
      <root>
        <mxCell id="0" />
        <mxCell id="1" parent="0" />
        <mxCell id="gykDoLQ3v6fPe2VFT6uG-1" value="" style="ellipse;html=1;shape=startState;fillColor=#000000;strokeColor=#ff0000;" vertex="1" parent="1">
          <mxGeometry x="405" y="70" width="30" height="30" as="geometry" />
        </mxCell>
        <mxCell id="gykDoLQ3v6fPe2VFT6uG-2" value="" style="edgeStyle=orthogonalEdgeStyle;html=1;verticalAlign=bottom;endArrow=open;endSize=8;strokeColor=#ff0000;rounded=0;entryX=0.5;entryY=0;entryDx=0;entryDy=0;" edge="1" parent="1" source="gykDoLQ3v6fPe2VFT6uG-1" target="gykDoLQ3v6fPe2VFT6uG-4">
          <mxGeometry relative="1" as="geometry">
            <mxPoint x="415" y="150" as="targetPoint" />
          </mxGeometry>
        </mxCell>
        <mxCell id="gykDoLQ3v6fPe2VFT6uG-3" style="edgeStyle=orthogonalEdgeStyle;rounded=0;orthogonalLoop=1;jettySize=auto;html=1;entryX=0.5;entryY=0;entryDx=0;entryDy=0;" edge="1" parent="1" source="gykDoLQ3v6fPe2VFT6uG-4">
          <mxGeometry relative="1" as="geometry">
            <mxPoint x="420" y="240" as="targetPoint" />
          </mxGeometry>
        </mxCell>
        <mxCell id="gykDoLQ3v6fPe2VFT6uG-4" value="Document Ready For Upload" style="html=1;whiteSpace=wrap;" vertex="1" parent="1">
          <mxGeometry x="320" y="150" width="200" height="50" as="geometry" />
        </mxCell>
        <mxCell id="gykDoLQ3v6fPe2VFT6uG-5" style="edgeStyle=orthogonalEdgeStyle;rounded=0;orthogonalLoop=1;jettySize=auto;html=1;entryX=0.5;entryY=0;entryDx=0;entryDy=0;exitX=0.5;exitY=1;exitDx=0;exitDy=0;" edge="1" parent="1" source="gykDoLQ3v6fPe2VFT6uG-23" target="gykDoLQ3v6fPe2VFT6uG-7">
          <mxGeometry relative="1" as="geometry">
            <mxPoint x="420" y="290" as="sourcePoint" />
          </mxGeometry>
        </mxCell>
        <mxCell id="gykDoLQ3v6fPe2VFT6uG-7" value="AI Suggestion" style="rhombus;whiteSpace=wrap;html=1;fontColor=#000000;fillColor=#ffffc0;strokeColor=#ff0000;" vertex="1" parent="1">
          <mxGeometry x="355" y="330" width="130" height="50" as="geometry" />
        </mxCell>
        <mxCell id="gykDoLQ3v6fPe2VFT6uG-8" value="" style="edgeStyle=orthogonalEdgeStyle;html=1;align=left;verticalAlign=bottom;endArrow=open;endSize=8;strokeColor=#ff0000;rounded=0;entryX=0.5;entryY=0;entryDx=0;entryDy=0;" edge="1" parent="1" source="gykDoLQ3v6fPe2VFT6uG-7" target="gykDoLQ3v6fPe2VFT6uG-13">
          <mxGeometry x="-1" relative="1" as="geometry">
            <mxPoint x="570" y="355" as="targetPoint" />
          </mxGeometry>
        </mxCell>
        <mxCell id="gykDoLQ3v6fPe2VFT6uG-9" value="YES" style="edgeLabel;html=1;align=center;verticalAlign=middle;resizable=0;points=[];" vertex="1" connectable="0" parent="gykDoLQ3v6fPe2VFT6uG-8">
          <mxGeometry x="-0.4337" y="-1" relative="1" as="geometry">
            <mxPoint as="offset" />
          </mxGeometry>
        </mxCell>
        <mxCell id="gykDoLQ3v6fPe2VFT6uG-10" value="" style="edgeStyle=orthogonalEdgeStyle;html=1;align=left;verticalAlign=top;endArrow=open;endSize=8;strokeColor=#ff0000;rounded=0;" edge="1" parent="1" source="gykDoLQ3v6fPe2VFT6uG-7">
          <mxGeometry x="-1" relative="1" as="geometry">
            <mxPoint x="420" y="450" as="targetPoint" />
          </mxGeometry>
        </mxCell>
        <mxCell id="gykDoLQ3v6fPe2VFT6uG-11" value="NO" style="edgeLabel;html=1;align=center;verticalAlign=middle;resizable=0;points=[];" vertex="1" connectable="0" parent="gykDoLQ3v6fPe2VFT6uG-10">
          <mxGeometry x="-0.2223" relative="1" as="geometry">
            <mxPoint as="offset" />
          </mxGeometry>
        </mxCell>
        <mxCell id="gykDoLQ3v6fPe2VFT6uG-12" style="edgeStyle=orthogonalEdgeStyle;rounded=0;orthogonalLoop=1;jettySize=auto;html=1;entryX=1;entryY=0.5;entryDx=0;entryDy=0;" edge="1" parent="1" source="gykDoLQ3v6fPe2VFT6uG-13" target="gykDoLQ3v6fPe2VFT6uG-17">
          <mxGeometry relative="1" as="geometry" />
        </mxCell>
        <mxCell id="gykDoLQ3v6fPe2VFT6uG-13" value="AI Suggestion Flow" style="shape=module;align=left;spacingLeft=20;align=center;verticalAlign=top;whiteSpace=wrap;html=1;" vertex="1" parent="1">
          <mxGeometry x="550" y="370" width="170" height="50" as="geometry" />
        </mxCell>
        <mxCell id="gykDoLQ3v6fPe2VFT6uG-14" style="edgeStyle=orthogonalEdgeStyle;rounded=0;orthogonalLoop=1;jettySize=auto;html=1;" edge="1" parent="1" source="gykDoLQ3v6fPe2VFT6uG-15" target="gykDoLQ3v6fPe2VFT6uG-21">
          <mxGeometry relative="1" as="geometry" />
        </mxCell>
        <mxCell id="gykDoLQ3v6fPe2VFT6uG-15" value="Wait for EOL" style="ellipse;shape=umlControl;whiteSpace=wrap;html=1;" vertex="1" parent="1">
          <mxGeometry x="385" y="640" width="70" height="80" as="geometry" />
        </mxCell>
        <mxCell id="gykDoLQ3v6fPe2VFT6uG-16" style="edgeStyle=orthogonalEdgeStyle;rounded=0;orthogonalLoop=1;jettySize=auto;html=1;entryX=0.5;entryY=0;entryDx=0;entryDy=0;" edge="1" parent="1" source="gykDoLQ3v6fPe2VFT6uG-17" target="gykDoLQ3v6fPe2VFT6uG-18">
          <mxGeometry relative="1" as="geometry" />
        </mxCell>
        <mxCell id="gykDoLQ3v6fPe2VFT6uG-17" value="Approval Process" style="shape=module;align=left;spacingLeft=20;align=center;verticalAlign=top;whiteSpace=wrap;html=1;" vertex="1" parent="1">
          <mxGeometry x="330" y="450" width="180" height="50" as="geometry" />
        </mxCell>
        <mxCell id="gykDoLQ3v6fPe2VFT6uG-18" value="Publish Process" style="shape=module;align=left;spacingLeft=20;align=center;verticalAlign=top;whiteSpace=wrap;html=1;" vertex="1" parent="1">
          <mxGeometry x="330" y="540" width="180" height="50" as="geometry" />
        </mxCell>
        <mxCell id="gykDoLQ3v6fPe2VFT6uG-19" style="edgeStyle=orthogonalEdgeStyle;rounded=0;orthogonalLoop=1;jettySize=auto;html=1;entryX=0.271;entryY=0.162;entryDx=0;entryDy=0;entryPerimeter=0;" edge="1" parent="1" source="gykDoLQ3v6fPe2VFT6uG-18" target="gykDoLQ3v6fPe2VFT6uG-15">
          <mxGeometry relative="1" as="geometry" />
        </mxCell>
        <mxCell id="gykDoLQ3v6fPe2VFT6uG-20" style="edgeStyle=orthogonalEdgeStyle;rounded=0;orthogonalLoop=1;jettySize=auto;html=1;entryX=0.5;entryY=0;entryDx=0;entryDy=0;" edge="1" parent="1" source="gykDoLQ3v6fPe2VFT6uG-21" target="gykDoLQ3v6fPe2VFT6uG-22">
          <mxGeometry relative="1" as="geometry" />
        </mxCell>
        <mxCell id="gykDoLQ3v6fPe2VFT6uG-21" value="Expiration Process" style="shape=module;align=left;spacingLeft=20;align=center;verticalAlign=top;whiteSpace=wrap;html=1;" vertex="1" parent="1">
          <mxGeometry x="335" y="760" width="170" height="50" as="geometry" />
        </mxCell>
        <mxCell id="gykDoLQ3v6fPe2VFT6uG-22" value="" style="ellipse;html=1;shape=endState;fillColor=#000000;strokeColor=#ff0000;" vertex="1" parent="1">
          <mxGeometry x="405" y="860" width="30" height="30" as="geometry" />
        </mxCell>
        <mxCell id="gykDoLQ3v6fPe2VFT6uG-23" value="Create Knowledge Base" style="shape=module;align=left;spacingLeft=20;align=center;verticalAlign=top;whiteSpace=wrap;html=1;" vertex="1" parent="1">
          <mxGeometry x="335" y="240" width="170" height="50" as="geometry" />
        </mxCell>
        <mxCell id="gykDoLQ3v6fPe2VFT6uG-24" value="Start" style="text;html=1;align=center;verticalAlign=middle;whiteSpace=wrap;rounded=0;" vertex="1" parent="1">
          <mxGeometry x="435" y="75" width="30" height="20" as="geometry" />
        </mxCell>
        <mxCell id="gykDoLQ3v6fPe2VFT6uG-25" value="&lt;h1 style=&quot;margin-top: 0px;&quot;&gt;Primary Process&lt;/h1&gt;&lt;p&gt;Lorem ipsum dolor sit amet, consectetur adipisicing elit, sed do eiusmod tempor incididunt ut labore et dolore magna aliqua.&lt;/p&gt;" style="text;html=1;whiteSpace=wrap;overflow=hidden;rounded=0;" vertex="1" parent="1">
          <mxGeometry x="40" y="70" width="230" height="120" as="geometry" />
        </mxCell>
      </root>
    </mxGraphModel>
  </diagram>
</mxfile>
